<?xml version="1.0" standalone="no"?>
<!DOCTYPE svg PUBLIC "-//W3C//DTD SVG 20010904//EN"
 "http://www.w3.org/TR/2001/REC-SVG-20010904/DTD/svg10.dtd">
<svg version="1.0" xmlns="http://www.w3.org/2000/svg"
 width="1280.000000pt" height="640.000000pt" viewBox="0 0 1280.000000 640.000000"
 preserveAspectRatio="xMidYMid meet">
<metadata>
Created by potrace 1.15, written by Peter Selinger 2001-2017
</metadata>
<g transform="translate(0.000000,640.000000) scale(0.100000,-0.100000)"
fill="#3f51b5" stroke="none">
<path d="M6285 5459 c-410 -23 -670 -79 -923 -199 -305 -146 -549 -355 -733
-629 -100 -148 -205 -368 -253 -532 -54 -179 -34 -409 54 -637 30 -77 33 -82
61 -82 43 0 75 37 88 101 6 30 17 118 26 197 10 96 22 159 35 190 22 50 76
112 96 112 7 0 26 11 42 25 41 34 53 91 45 209 -3 53 -3 96 1 96 19 0 49 -25
76 -62 24 -33 30 -51 30 -95 0 -68 -25 -119 -121 -243 -86 -112 -87 -113 -78
-345 5 -127 3 -168 -9 -198 -9 -25 -53 -74 -127 -145 -126 -120 -174 -183
-211 -271 -70 -173 -45 -364 67 -511 52 -68 80 -120 66 -120 -7 0 -46 20 -87
44 -78 46 -158 111 -377 305 -219 195 -336 256 -488 255 -69 0 -94 -6 -190
-43 -61 -24 -136 -45 -168 -48 -51 -5 -61 -3 -83 18 -25 23 -26 28 -21 94 5
64 15 100 73 247 l18 48 -45 47 c-204 213 -446 580 -657 999 -75 149 -70 145
-122 88 -278 -302 -645 -523 -1287 -778 -304 -120 -541 -189 -894 -260 -90
-18 -158 -35 -153 -38 5 -3 34 -13 64 -23 92 -30 341 -130 417 -168 322 -163
563 -371 717 -620 37 -60 45 -84 51 -142 13 -130 59 -215 139 -258 61 -33 217
-30 396 7 77 16 182 31 245 33 101 5 120 3 230 -27 212 -57 368 -143 500 -274
192 -190 281 -416 303 -766 13 -196 38 -235 151 -235 77 0 119 13 327 101 84
35 186 73 229 85 78 21 80 21 263 3 127 -12 308 40 529 153 l144 73 189 0
c213 0 204 4 194 -84 -10 -85 25 -131 114 -151 80 -17 162 25 162 84 0 51 39
141 66 153 35 16 64 -8 159 -135 97 -128 137 -171 183 -193 63 -30 140 6 172
80 23 55 64 102 95 110 43 11 111 -28 199 -114 45 -44 85 -80 88 -80 3 0 9 15
12 34 9 47 57 109 99 129 43 21 106 22 151 3 18 -7 65 -43 104 -78 125 -113
202 -135 259 -75 17 17 38 47 47 65 15 28 20 31 44 25 15 -5 61 -8 102 -8 110
1 170 31 282 145 l89 90 217 0 217 0 140 -75 c177 -94 284 -140 408 -172 85
-22 110 -24 185 -18 231 18 256 14 515 -96 296 -126 389 -131 444 -26 11 21
19 76 25 167 10 170 30 277 73 396 63 176 166 325 300 433 128 103 237 155
445 212 105 29 124 31 215 26 55 -3 159 -17 230 -32 158 -32 312 -42 375 -25
32 8 59 26 92 60 52 54 73 109 84 219 9 87 63 177 206 342 196 228 570 450
976 580 39 13 72 26 72 30 0 3 -22 9 -49 12 -112 13 -593 131 -751 184 -25 8
-128 48 -230 88 -627 246 -970 447 -1267 742 l-93 92 -56 -107 c-433 -821
-640 -1088 -1173 -1511 -248 -197 -577 -386 -809 -466 -135 -46 -141 -45 -99
8 83 104 146 231 178 357 31 123 24 240 -24 380 -50 144 -67 222 -67 312 0
102 26 171 92 243 l50 55 -7 158 c-10 233 -21 308 -66 439 -186 542 -547 941
-979 1081 -340 111 -720 155 -1135 131z m1379 -1499 c155 -39 273 -122 365
-254 69 -100 85 -148 79 -241 -7 -110 -56 -206 -156 -305 -155 -154 -203 -168
-611 -181 -402 -13 -492 0 -579 84 -60 57 -75 99 -67 186 25 264 160 510 328
597 65 34 256 107 312 119 92 21 238 18 329 -5z m-1925 -25 c153 -37 323 -127
402 -213 126 -137 207 -382 179 -540 -19 -109 -61 -173 -130 -198 -86 -31
-720 -43 -720 -13 0 5 -12 6 -27 3 -39 -6 -176 44 -246 90 -77 51 -133 116
-176 206 -35 72 -36 79 -36 185 0 100 3 115 28 166 33 68 129 179 202 234 61
45 145 81 220 95 66 12 224 4 304 -15z m622 -1270 c-11 -122 -40 -243 -76
-322 -20 -45 -29 -53 -64 -64 -86 -26 -116 17 -108 151 11 172 107 368 211
431 l31 19 9 -52 c5 -32 4 -96 -3 -163z m341 154 c110 -79 198 -284 198 -464
l0 -81 -33 -12 c-46 -17 -108 -15 -135 4 -37 26 -70 106 -92 226 -31 165 -58
300 -65 325 -5 15 -2 23 12 26 30 8 85 -3 115 -24z"/>
</g>
</svg>
