<svg xmlns="http://www.w3.org/2000/svg" xmlns:xlink="http://www.w3.org/1999/xlink" viewBox="0 0 153.56 1019.64"><defs><style>.cls-1{stroke:#000;stroke-miterlimit:10;stroke-width:1.5px;fill:url(#Dégradé_sans_nom_16);}</style><linearGradient id="Dégradé_sans_nom_16" x1="0.75" y1="509.82" x2="152.81" y2="509.82" gradientUnits="userSpaceOnUse"><stop offset="0" stop-color="#5e656d"/><stop offset="0.09" stop-color="#626971"/><stop offset="0.18" stop-color="#6d747b"/><stop offset="0.27" stop-color="#81888e"/><stop offset="0.36" stop-color="#9ca3a7"/><stop offset="0.44" stop-color="#bec5c8"/><stop offset="0.5" stop-color="#dae1e2"/><stop offset="0.57" stop-color="#b6bdc0"/><stop offset="0.64" stop-color="#979ea2"/><stop offset="0.72" stop-color="#7e858b"/><stop offset="0.81" stop-color="#6c737a"/><stop offset="0.9" stop-color="#616870"/><stop offset="1" stop-color="#5e656d"/></linearGradient></defs><g id="Calque_2" data-name="Calque 2"><g id="rafters"><g id="brackets"><g id="bracket-l"><path class="cls-1" d="M48,66.75q-15-30.28-44.22-39.49C1.77,24,.75,19.6.75,14S1.77,4,3.81.75q54.44,0,78.24,38.14T102.8,170.08L95.66,374q-1.36,42.75,13.78,79.26t43.37,49.5v16.77q-27.9,10.83-43.37,46.52T95.66,649.94L102.8,838.2q2,55.71-2.89,91.43t-18.2,55.18q-13.26,19.47-31.46,26.78t-46.44,7.3Q.75,1014,.75,1005.64c0-5.6,1-10,3.06-13.26q25.19,0,42.52-36.24Q63.36,921,61,855l-6.8-176.36q-2.73-71.42,9.35-109.28t42.69-59Q78,490.89,64.87,457.07T54.16,356.18L61,161.42Q63.35,97.06,48,66.75Z"/></g></g></g></g></svg>